<?xml version="1.0" standalone="no"?>
<!DOCTYPE svg PUBLIC "-//W3C//DTD SVG 20010904//EN"
 "http://www.w3.org/TR/2001/REC-SVG-20010904/DTD/svg10.dtd">
<svg version="1.0" xmlns="http://www.w3.org/2000/svg"
 width="1218.000000pt" height="1226.000000pt" viewBox="0 0 1218.000000 1226.000000"
 preserveAspectRatio="xMidYMid meet">
<metadata>
Created by potrace 1.16, written by Peter Selinger 2001-2019
</metadata>
<g transform="translate(0.000000,1226.000000) scale(0.100000,-0.100000)"
fill="#000000" stroke="none">
<path d="M1745 8354 c-159 -24 -333 -78 -459 -141 -281 -141 -500 -398 -602
-703 -26 -78 -28 -97 -29 -235 0 -134 3 -161 28 -249 109 -391 329 -588 1050
-941 363 -177 563 -309 652 -428 61 -80 72 -104 96 -194 24 -96 26 -297 3
-393 -43 -183 -171 -338 -347 -421 -105 -48 -179 -63 -317 -63 -146 0 -215 15
-335 74 -200 99 -323 256 -390 500 -20 73 -36 109 -57 132 -27 29 -31 30 -91
25 -75 -6 -288 -65 -409 -114 -81 -32 -88 -37 -88 -63 0 -95 170 -491 286
-667 121 -182 259 -283 544 -396 396 -158 801 -151 1145 20 269 134 495 374
612 648 80 189 113 359 113 578 0 415 -142 697 -475 947 -160 120 -309 203
-704 392 -380 181 -590 337 -659 487 -35 75 -29 180 15 266 96 188 236 299
433 341 167 35 365 -9 547 -122 99 -62 161 -119 213 -199 l41 -63 62 35 c34
19 100 57 147 83 154 86 284 167 294 183 8 12 5 23 -12 44 -12 15 -29 44 -39
63 -25 52 -215 236 -323 312 -161 115 -356 203 -540 243 -73 16 -341 28 -405
19z"/>
<path d="M5660 6145 l0 -2115 315 0 315 0 0 2115 0 2115 -315 0 -315 0 0
-2115z"/>
<path d="M9089 6168 c0 -1151 -2 -2103 -3 -2115 l-3 -23 314 0 313 0 0 56 c0
86 50 1768 53 1777 1 4 22 -20 47 -55 24 -35 173 -243 330 -463 415 -581 579
-809 635 -890 28 -40 106 -151 175 -248 l125 -177 362 0 c200 0 363 2 363 5 0
8 -240 376 -313 480 -106 150 -269 375 -371 510 -218 289 -585 800 -578 806 4
4 85 48 180 98 214 112 290 162 390 256 169 159 263 349 303 610 20 127 17
424 -5 544 -49 274 -169 482 -359 623 -217 160 -528 253 -966 287 -74 6 -328
11 -563 11 l-428 0 -1 -2092z m1106 1518 c150 -35 241 -63 300 -92 227 -109
351 -374 316 -674 -6 -55 -20 -122 -30 -151 -59 -155 -207 -282 -407 -348
-123 -41 -213 -51 -450 -51 l-204 0 0 676 0 676 183 -5 c148 -4 202 -10 292
-31z"/>
</g>
</svg>
